<?xml version="1.0" standalone="no"?>
<!DOCTYPE svg PUBLIC "-//W3C//DTD SVG 20010904//EN"
 "http://www.w3.org/TR/2001/REC-SVG-20010904/DTD/svg10.dtd">
<svg version="1.0" xmlns="http://www.w3.org/2000/svg"
 width="400.000000pt" height="400.000000pt" viewBox="0 0 400.000000 400.000000"
 preserveAspectRatio="xMidYMid meet">

<g transform="translate(0.000000,400.000000) scale(0.100000,-0.100000)"
fill="#000000" stroke="none">
<path d="M1924 3306 c-27 -27 -34 -42 -34 -72 0 -83 66 -134 145 -113 87 24
103 156 25 202 -47 28 -97 22 -136 -17z"/>
<path d="M1472 3239 c-53 -26 -87 -70 -103 -130 -16 -60 -1 -119 46 -178 83
-105 68 -161 -65 -241 -121 -72 -125 -250 -9 -327 31 -20 57 -28 104 -31 122
-8 206 69 205 190 -1 55 -10 78 -67 163 -46 68 -44 106 5 154 21 20 59 48 84
62 55 32 88 93 88 163 0 145 -157 240 -288 175z"/>
<path d="M2365 3241 c-53 -24 -103 -81 -110 -128 -29 -177 -69 -209 -212 -167
-45 13 -63 14 -101 4 -92 -23 -151 -96 -152 -188 -1 -151 152 -247 288 -181
57 28 89 78 106 169 24 126 72 158 186 127 33 -9 68 -17 77 -17 68 0 154 57
179 117 8 18 14 57 14 87 0 138 -149 235 -275 177z"/>
<path d="M1060 2953 c-66 -59 -46 -157 37 -189 39 -15 44 -15 80 2 25 12 45
32 57 57 17 36 17 41 2 80 -29 78 -117 102 -176 50z"/>
<path d="M2794 2946 c-72 -72 -27 -186 75 -188 68 -1 111 45 111 118 0 54 -53
104 -110 104 -34 0 -48 -6 -76 -34z"/>
<path d="M2478 2740 c-87 -26 -137 -88 -145 -179 -11 -118 71 -211 186 -211
58 0 90 13 160 63 22 16 57 31 78 34 32 4 45 0 71 -22 18 -15 41 -44 52 -64
26 -52 92 -109 135 -117 96 -18 176 18 220 97 74 136 -22 300 -175 299 -32 0
-104 -33 -141 -64 -75 -64 -149 -52 -197 31 -65 113 -153 161 -244 133z"/>
<path d="M851 2614 c-76 -38 -106 -87 -106 -174 0 -116 61 -178 196 -199 117
-19 145 -67 116 -194 -16 -65 -16 -77 -3 -121 20 -66 67 -113 133 -132 48 -14
58 -14 106 0 57 16 118 70 136 119 15 39 14 112 -3 150 -29 69 -95 110 -198
122 -60 8 -105 44 -114 91 -4 21 1 59 12 100 15 57 16 73 5 112 -16 62 -51
105 -104 131 -58 28 -112 27 -176 -5z"/>
<path d="M1916 2369 c-60 -14 -153 -68 -192 -112 -144 -159 -132 -398 27 -541
187 -168 488 -102 597 132 36 78 38 208 4 294 -67 167 -260 268 -436 227z"/>
<path d="M2675 2193 c-96 -50 -141 -162 -102 -256 20 -47 89 -105 134 -112
176 -29 206 -66 168 -210 -33 -127 41 -241 164 -253 122 -11 221 77 221 198 0
110 -67 179 -190 195 -73 10 -107 29 -127 71 -15 30 -15 41 -4 92 22 94 24
119 11 157 -16 47 -66 104 -107 121 -43 19 -131 17 -168 -3z"/>
<path d="M694 2076 c-28 -28 -34 -42 -34 -76 0 -34 6 -48 34 -76 29 -29 41
-34 79 -34 55 0 92 27 106 75 21 79 -30 145 -112 145 -31 0 -46 -7 -73 -34z"/>
<path d="M3154 2076 c-38 -38 -45 -85 -20 -135 37 -71 157 -68 195 6 37 72
-18 163 -99 163 -34 0 -48 -6 -76 -34z"/>
<path d="M855 1741 c-157 -72 -152 -299 7 -366 72 -30 142 -15 218 46 28 23
53 33 87 36 60 6 88 -14 132 -92 58 -102 168 -142 260 -93 72 37 103 84 109
166 4 60 1 76 -18 111 -34 60 -89 94 -159 99 -63 5 -97 -8 -163 -61 -24 -19
-52 -31 -80 -34 -37 -4 -49 -1 -76 22 -18 15 -40 41 -48 59 -55 109 -168 154
-269 107z"/>
<path d="M2465 1654 c-75 -41 -115 -101 -115 -174 0 -49 15 -87 64 -159 59
-87 47 -140 -48 -200 -72 -45 -90 -64 -111 -114 -20 -48 -19 -103 4 -152 75
-163 315 -149 371 21 20 60 7 119 -40 187 -74 104 -65 170 29 224 65 37 91 62
112 108 39 85 11 184 -69 239 -53 37 -148 47 -197 20z"/>
<path d="M1945 1428 c-41 -14 -103 -75 -114 -112 -5 -17 -13 -56 -17 -86 -5
-43 -13 -61 -39 -87 -39 -39 -73 -42 -163 -17 -46 13 -66 14 -98 5 -101 -27
-158 -105 -152 -204 10 -143 153 -227 285 -167 54 24 98 90 107 162 11 79 30
115 71 135 32 15 42 16 93 4 97 -22 107 -23 150 -11 51 13 110 63 128 107 8
18 14 55 14 83 0 139 -134 234 -265 188z"/>
<path d="M1054 1206 c-28 -28 -34 -42 -34 -76 0 -57 50 -110 104 -110 63 0 99
28 119 92 11 33 -13 88 -46 108 -51 32 -103 26 -143 -14z"/>
<path d="M2794 1206 c-37 -37 -45 -82 -23 -129 33 -73 164 -75 197 -2 26 57 4
132 -45 154 -47 22 -92 14 -129 -23z"/>
<path d="M1924 846 c-26 -26 -34 -42 -34 -70 0 -69 44 -116 110 -116 67 0 110
43 110 110 0 69 -43 110 -115 110 -29 0 -45 -8 -71 -34z"/>
</g>
</svg>
